<svg width="108" height="16" viewBox="0 0 108 16" fill="none" xmlns="http://www.w3.org/2000/svg">
<g id="nexus-logo.291a8e4.svg" clip-path="url(#clip0_315_4583)">
<path id="Vector" d="M21.5133 12.9427L14.1751 9.95949C13.3118 9.6064 12.3962 9.42717 11.4807 9.42717H11.462C10.5464 9.42717 9.63082 9.6064 8.76748 9.95949L1.42789 12.938L1.38532 12.8339L11.4702 4.14638L21.5551 12.8379L21.5125 12.9419L21.5133 12.9427ZM11.4702 0.0491943L0 9.92424L1.13365 12.7932L1.20983 12.9873L1.22402 13.0218L1.34724 13.3302L2.38157 15.951L9.86232 12.9075C10.3746 12.6985 10.9153 12.5889 11.4613 12.5889H11.4799C12.0258 12.5889 12.5665 12.6985 13.0788 12.9075L20.5596 15.951L21.6178 13.2809L21.6364 13.2261L21.7171 13.0226L21.7313 12.9881L21.788 12.8488L21.812 12.794L22.9411 9.92974L11.4702 0.0491943Z" fill="#D0D3D4"/>
<path id="Vector_2" d="M33.9859 8.67552L32.2638 5.23513L30.5416 8.67552H33.9859ZM30.9546 3.03076H33.5669L38.6042 12.9692H36.0307L34.8433 10.5825H29.6761L28.4961 12.9692H25.9219L30.9531 3.03076H30.9546Z" fill="#D0D3D4"/>
<path id="Vector_3" d="M41.5879 3.03088H44.0001L48.3226 8.27021L52.6503 3.03088H55.0625V12.9693H52.7213V6.10729L48.9798 10.5959H47.6714L43.9299 6.10729V12.9693H41.5879V3.03088Z" fill="#D0D3D4"/>
<path id="Vector_4" d="M64.3714 7.63441C64.6634 7.63441 64.9158 7.60466 65.1286 7.54364C65.3414 7.48255 65.517 7.39568 65.6544 7.28059C65.7925 7.1655 65.8934 7.02537 65.9576 6.86026C66.0218 6.69587 66.0539 6.5064 66.0539 6.28878C66.0539 6.08291 66.0218 5.89347 65.9576 5.72204C65.8934 5.5506 65.7925 5.40892 65.6544 5.29854C65.517 5.18816 65.3414 5.1044 65.1286 5.04491C64.9158 4.98699 64.6634 4.95802 64.3714 4.95802H60.3849V7.63441H64.3714ZM58.043 3.03076H64.5379C65.1914 3.03076 65.7575 3.11139 66.2339 3.27421C66.7117 3.43547 67.1086 3.66326 67.424 3.9529C67.74 4.24489 67.9739 4.58854 68.1276 4.98699C68.28 5.38543 68.3562 5.82067 68.3562 6.288C68.3562 6.7553 68.28 7.20546 68.1276 7.60778C67.9746 8.00784 67.74 8.35225 67.424 8.63874C67.1086 8.92524 66.7117 9.14913 66.2339 9.31119C65.7567 9.47399 65.1914 9.55462 64.5379 9.55462H60.3842V12.9692H58.043V3.03076Z" fill="#D0D3D4"/>
<path id="Vector_5" d="M71.3379 3.03076H80.8777V4.97055H73.6794V7.00662H79.9494V8.8994H73.6794V11.0287H80.8975V12.9692H71.3379V3.03076Z" fill="#D0D3D4"/>
<path id="Vector_6" d="M90.0647 7.29765C90.4086 7.29765 90.7001 7.27492 90.938 7.22722C91.1772 7.17945 91.3687 7.10901 91.5125 7.01506C91.6562 6.91952 91.7596 6.79899 91.8219 6.65261C91.8835 6.50623 91.9153 6.33166 91.9153 6.12892C91.9153 5.92617 91.8835 5.74535 91.8219 5.59896C91.7596 5.45257 91.6562 5.33202 91.5125 5.23652C91.3687 5.14259 91.1772 5.07213 90.938 5.02752C90.7001 4.98133 90.4086 4.96019 90.0647 4.96019H86.2198V7.29917H90.0647V7.29765ZM83.8789 3.03137H90.2257C90.9267 3.03137 91.529 3.10339 92.0326 3.24664C92.5348 3.39146 92.9502 3.59734 93.2776 3.86583C93.6042 4.13434 93.8427 4.45685 93.9945 4.83573C94.1442 5.2146 94.2197 5.63966 94.2197 6.11404C94.2197 6.53284 94.1575 6.91329 94.0329 7.25538C93.9083 7.59826 93.7142 7.8996 93.4492 8.15794C93.1848 8.4178 92.8469 8.62916 92.4361 8.79044C92.0253 8.9533 91.5317 9.05891 90.9559 9.10827L95.2129 12.969H92.0531L87.9239 9.19673H86.2211V12.969H83.8802V3.03215L83.8789 3.03137Z" fill="#D0D3D4"/>
<path id="Vector_7" d="M98.1953 3.03088H107.735V4.97067H100.537V7.00674H106.807V8.89952H100.537V11.0288H107.756V12.9693H98.1953V3.03088Z" fill="#D0D3D4"/>
</g>
<defs>
<clipPath id="clip0_315_4583">
<rect width="108" height="15.9018" fill="white" transform="translate(0 0.0491943)"/>
</clipPath>
</defs>
</svg>
